HIERARCHY
ROOT Hips
{
	OFFSET -3.958830 18.904000 13.208200
	CHANNELS 6 Xposition Yposition Zposition Zrotation Yrotation Xrotation 
	JOINT LHipJoint
	{
		OFFSET 0.000000 0.000000 0.000000
		CHANNELS 3 Zrotation Yrotation Xrotation
		JOINT LeftUpLeg
		{
			OFFSET 1.800000 -1.400000 0.085000
			CHANNELS 3 Zrotation Yrotation Xrotation
			JOINT LeftLeg
			{
				OFFSET 2.215000 -6.000000 0.000000
				CHANNELS 3 Zrotation Yrotation Xrotation
				JOINT LeftFoot
				{
					OFFSET 2.500000 -6.900000 0.000000
					CHANNELS 3 Zrotation Yrotation Xrotation
					JOINT LeftToeBase
					{
						OFFSET 0.200000 -0.500000 1.950000
						CHANNELS 3 Zrotation Yrotation Xrotation
						End Site
						{
							OFFSET 0.000000 0.000000 0.000000
						}
					}
				}
			}
		}
	}
	JOINT RHipJoint
	{
		OFFSET 0.000000 0.000000 0.000000
		CHANNELS 3 Zrotation Yrotation Xrotation
		JOINT RightUpLeg
		{
			OFFSET -1.800000 -1.400000 0.085000
			CHANNELS 3 Zrotation Yrotation Xrotation
			JOINT RightLeg
			{
				OFFSET -2.215000 -6.000000 0.000000
				CHANNELS 3 Zrotation Yrotation Xrotation
				JOINT RightFoot
				{
					OFFSET -2.500000 -6.900000 0.000000
					CHANNELS 3 Zrotation Yrotation Xrotation
					JOINT RightToeBase
					{
						OFFSET -0.200000 -0.500000 1.950000
						CHANNELS 3 Zrotation Yrotation Xrotation
						End Site
						{
							OFFSET 0.000000 0.000000 0.000000
						}
					}
				}
			}
		}
	}
	JOINT LowerBack
	{
		OFFSET 0.000000 0.000000 0.000000
		CHANNELS 3 Zrotation Yrotation Xrotation
		JOINT Spine
		{
			OFFSET -0.087000 1.940000 -0.288900
			CHANNELS 3 Zrotation Yrotation Xrotation
			JOINT Spine1
			{
				OFFSET 0.000000 1.950000 0.060000
				CHANNELS 3 Zrotation Yrotation Xrotation
				JOINT Neck
				{
					OFFSET 0.000000 0.000000 0.000000
					CHANNELS 3 Zrotation Yrotation Xrotation
					JOINT Neck1
					{
						OFFSET 0.000000 1.600000 0.340000
						CHANNELS 3 Zrotation Yrotation Xrotation
						JOINT Head
						{
							OFFSET 0.000000 1.667000 -0.240000
							CHANNELS 3 Zrotation Yrotation Xrotation
							End Site
							{
								OFFSET 0.000000 0.000000 0.000000
							}
						}
					}
				}
				JOINT LeftShoulder
				{
					OFFSET 0.000000 0.000000 0.000000
					CHANNELS 3 Zrotation Yrotation Xrotation
					JOINT LeftArm
					{
						OFFSET 2.700000 1.550000 -0.730000
						CHANNELS 3 Zrotation Yrotation Xrotation
						JOINT LeftForeArm
						{
							OFFSET 5.450000 0.000000 0.000000
							CHANNELS 3 Zrotation Yrotation Xrotation
							JOINT LeftHand
							{
								OFFSET 3.450000 0.000000 0.000000
								CHANNELS 3 Zrotation Yrotation Xrotation
								JOINT LeftHandIndex1
								{
									OFFSET 0.750000 0.000000 0.000000
									CHANNELS 3 Zrotation Yrotation Xrotation
									End Site
									{
										OFFSET 0.000000 0.000000 0.000000
									}
								}
							}
						}
					}
				}
				JOINT RightShoulder
				{
					OFFSET 0.000000 0.000000 0.000000
					CHANNELS 3 Zrotation Yrotation Xrotation
					JOINT RightArm
					{
						OFFSET -2.700000 1.550000 -0.730000
						CHANNELS 3 Zrotation Yrotation Xrotation
						JOINT RightForeArm
						{
							OFFSET -5.450000 0.000000 0.000000
							CHANNELS 3 Zrotation Yrotation Xrotation
							JOINT RightHand
							{
								OFFSET -3.450000 0.000000 0.000000
								CHANNELS 3 Zrotation Yrotation Xrotation
								JOINT RightHandIndex1
								{
									OFFSET -0.750000 0.000000 0.000000
									CHANNELS 3 Zrotation Yrotation Xrotation
									End Site
									{
										OFFSET 0.000000 0.000000 0.000000
									}
								}
							}
						}
					}
				}
			}
		}
	}
}
MOTION
Frames: 4
Frame Time: 0.016667
-0.748620 16.921580 -2.558410 -3.217720 30.388924 4.542659 -15.185328 9.322530 5.388984 -9.228241 -11.020633 -47.884776 1.881034 3.371909 24.611484 -0.531574 2.745793 3.418459 -0.116370 -0.518870 0.333970 18.493162 -11.868198 3.370474 2.725122 -3.672196 6.420315 10.667480 -6.307788 3.958203 -0.541490 -4.908672 2.835352 -0.345800 -0.228920 -0.049030 -4.427256 5.707256 -8.179723 6.347344 15.249734 9.581668 3.402328 18.571350 -19.773763 -3.855931 9.236684 -12.113476 25.105438 -25.174622 29.835253 -13.207520 -12.461980 7.662710 -11.379299 15.680459 1.978670 -64.062128 17.491658 -6.124582 -40.137004 -58.569054 23.343687 -3.281811 2.985946 0.506080 -0.075410 -0.009820 -0.258790 11.343792 -8.711715 4.297107 70.208237 -10.219511 -8.011438 -1.220041 18.548226 -0.538924 2.452744 -0.940794 -0.216570 -0.023080 0.125640 -0.367890 
-0.690980 16.917550 -2.451380 -3.034714 35.020850 4.955938 -15.232892 9.322009 5.440560 -11.618194 -11.731767 -45.519522 2.098819 2.974450 23.565754 -0.542491 2.488253 3.501407 -0.112680 -0.530120 0.366920 18.449204 -11.836679 3.410531 4.834207 -4.105053 5.657999 10.181942 -6.187144 4.196989 -0.536933 -4.747786 2.857632 -0.372610 -0.289220 -0.021470 -4.389647 5.616469 -8.208106 5.766734 13.962531 8.901000 3.029003 17.254207 -21.090015 -3.766626 9.208943 -12.356015 25.433757 -26.085674 29.347376 -14.612720 -12.634680 7.573810 -12.135437 15.976338 1.668976 -63.919082 18.238573 -6.516993 -37.842631 -49.635051 17.911104 -3.348435 2.736166 0.523680 -0.104270 0.023830 -0.288630 11.582756 -8.882191 4.365752 70.306515 -12.023013 -7.916420 0.163523 14.436907 -0.168627 2.530874 -0.903795 -0.183350 -0.074400 0.124740 -0.382670 
-0.643030 16.916470 -2.329970 -2.482817 37.869219 5.364936 -15.246328 9.361987 5.438586 -13.065052 -11.924760 -43.531209 1.942942 2.902332 23.357069 -0.521042 2.414103 3.525242 -0.127010 -0.559740 0.362910 18.422560 -11.851427 3.460378 5.743280 -4.267578 5.486335 9.981520 -6.156783 4.299300 -0.543424 -4.677502 2.876038 -0.410390 -0.326490 -0.021020 -4.396856 5.580134 -8.259599 5.015259 13.380908 8.297890 2.428012 16.340088 -21.889521 -4.039665 8.961087 -12.822441 25.076450 -26.529836 30.815675 -14.299160 -13.548200 8.234860 -11.855256 15.788210 1.933821 -64.369011 18.816696 -6.894181 -36.513086 -43.235967 14.401861 -3.382897 2.567558 0.551670 -0.139230 0.045930 -0.299070 11.722737 -8.781851 4.836735 70.918625 -13.905470 -8.741716 1.239789 14.374502 -0.042925 2.554058 -0.864301 -0.168880 -0.103540 0.124250 -0.385990 
-0.588010 16.921970 -2.195960 -1.594697 39.410796 5.967862 -15.245503 9.429956 5.383325 -14.117426 -11.744447 -41.579394 1.561922 2.984630 23.303812 -0.479798 2.383860 3.535510 -0.134400 -0.568340 0.356630 18.396111 -11.934882 3.484132 5.501359 -4.085979 5.356865 10.262413 -6.327022 4.958889 -0.557158 -4.685316 2.878701 -0.440690 -0.355570 -0.025070 -4.390054 5.651481 -8.231629 3.755897 13.002851 7.456916 1.978834 15.566478 -22.593523 -4.128370 8.668537 -13.175916 24.834890 -26.400513 32.513410 -14.361460 -13.432540 9.052530 -11.582589 16.234920 2.292441 -64.131135 20.324721 -7.133984 -36.578521 -39.697504 12.890266 -3.374633 2.497262 0.563880 -0.165660 0.066560 -0.297740 11.522763 -9.191134 5.086476 70.903830 -14.848416 -9.081340 2.215222 14.799272 0.038423 2.575686 -0.841870 -0.149020 -0.125930 0.114870 -0.381380 
